/* XPM */
static const char *icon[] = {
/* columns rows colors chars-per-pixel */
"32 32 108 2 ",
"   c #61F961F961F9",
".  c #632163216321",
"X  c #734F734F734F",
"o  c #746E746E746E",
"O  c #75A875A875A8",
"+  c #768B768B768B",
"@  c #4EA8B0B2529D",
"#  c #7175BD3A7485",
"$  c #71ABBD7074BB",
"%  c #FF97C2850A53",
"&  c #FA75CB013CA6",
"*  c #FA90CB373CDC",
"=  c #F4D3D469732D",
"-  c #46DA8E74D920",
";  c #48368F4AD969",
":  c #49058FC9D995",
">  c #49BF903BD9BC",
",  c #4A4A9090D9D9",
"<  c #4C6291D8DA4A",
"1  c #50849462DB28",
"2  c #58A99960DCDE",
"3  c #5BD89B54DD89",
"4  c #5D719C4FDDDF",
"5  c #5E199CB6DE02",
"6  c #78D4AD1AE39E",
"7  c #8E158E158E15",
"8  c #A2C6A2C6A2C6",
"9  c #A387A387A387",
"0  c #A6B2A6B2A6B2",
"q  c #AA46AA46AA46",
"w  c #B7DEB7DEB7DE",
"e  c #BBC9BBC9BBC9",
"r  c #973FCB009956",
"t  c #AAADCFA3AC2B",
"y  c #AFCDD4C3B14B",
"u  c #ED81D65B90EA",
"i  c #F2A3DB7B960A",
"p  c #E9ADDC6FB4B6",
"a  c #EE5EE120B967",
"s  c #8718B5DAE69C",
"d  c #94A6BE2AE975",
"f  c #9507BE65E98A",
"g  c #A347C723EC88",
"h  c #A524C847ECEC",
"j  c #A533C853ECF3",
"k  c #BAA7D578F16F",
"l  c #BABAD584F174",
"z  c #C373D898C44D",
"x  c #C824DD48C8FE",
"c  c #D14ED14ED14E",
"v  c #D186D186D186",
"b  c #D2ACD2ACD2AC",
"n  c #D761D761D761",
"m  c #D519DBE1D560",
"M  c #DAEDDDE0DB0B",
"N  c #E042DE6AD8E0",
"B  c #DB75DC67DF3C",
"V  c #DD01DD01DD01",
"C  c #DE2FDCADDE1F",
"Z  c #DE09DE0FDDFF",
"A  c #DFD5DFC7DFCE",
"S  c #E158DD19D05C",
"D  c #E163DD23D066",
"F  c #DBD9E1BFDC16",
"G  c #E682E2D1D7BD",
"H  c #DFDBE006E087",
"J  c #E02AE0C0E281",
"K  c #DBBAE9C3F867",
"L  c #DD3DEAB1F8B9",
"P  c #E1DBE0ECE1D1",
"I  c #E19EE19EE19E",
"U  c #E203E236E2CE",
"Y  c #E295E245E292",
"T  c #E5FCE5FCE5FC",
"R  c #E6D5E6D5E6D5",
"E  c #E7F3E7F3E7F3",
"W  c #E81FE852E8EA",
"Q  c #E7BFE855EA16",
"!  c #E7DCE8CEEBA3",
"~  c #E8C7E8B1E8C6",
"^  c #E9D1E8E3E9C8",
"/  c #E9A0E9A0E9A0",
"(  c #EAF7E975EAE7",
")  c #EADEEADEEADE",
"_  c #EC19EC18EC1C",
"`  c #EA69F2D1FB95",
"'  c #EAEFF323FBB2",
"]  c #EC4AF3F1FBED",
"[  c #EC99F43DFC34",
"{  c #ED42F49FFC4C",
"}  c #F555F554F553",
"|  c #FA4AFA49FA51",
" . c #FB5FFAD9FA55",
".. c #FB7CFAEBFA6C",
"X. c #FA24FA60FB16",
"o. c #FA99FA57FA96",
"O. c #FAFBFAEBFAF8",
"+. c #FBCFFAF7FABC",
"@. c #FC32FBADFB23",
"#. c #FBEFFBEFFBEC",
"$. c #FCB9FC39FBB0",
"%. c #FE2CFE2CFE2C",
"&. c #FECAFE68FE03",
"*. c #FF34FEAEFE20",
"=. c #FE22FEE3FFAD",
"-. c #FE8FFF1DFFB2",
";. c white",
":. c None",
/* pixels */
":.:.:.:.:.:.:.:.:.:.:.:.:.:.:.:.:.:.:.:.:.:.:.:.:.:.:.:.:.:.:.:.",
":.:.:.:.:.:.:.:.:.:.:.:.:., , , , , , , :.:.:.:.:.:.:.:.:.:.:.:.",
":.:.:.:.:.:.:.:.:.:., , , , , , , , , , , , , :.:.:.:.:.:.:.:.:.",
":.:.:.:.:.:.:.:., , , , , , , , , , , , , , , , :.:.:.:.:.:.:.:.",
":.:.:.:.:.:.:., , : : : : : : : : : : : : : : , , , :.:.:.:.:.:.",
":.:.:.:.:.:., , , 2 5 5 5 5 5 5 5 5 5 5 5 5 5 1 : , , :.:.:.:.:.",
":.:.:.:.:., , , s L { [ [ [ [ [ [ [ ] ] [ [ ] l 2 : , , :.:.:.:.",
":.:.:.:., , : 2 K ;.$.+.+.+.+.+.+.+.+.+.+.+.;.;.f - , , , :.:.:.",
":.:.:., , , : 5 [ $.Z M m Z Z n v v v v Z Z ( ;.j - , , , :.:.:.",
":.:.:., , , : 5 [ +.M r $ x P 7 X O O O e E E ;.j - , , , , :.:.",
":.:., , , , : 5 [ +.m $ @ y Z O         q E E ;.j - , , , , :.:.",
":.:., , , , : 5 [ +.Z z t F P w 9 9 9 0 v P E ;.j - , , , , , :.",
":.:., , , , : 5 ] ;._ ( ( ( ( ( ( ( ( ( ( ( } ;.j - , , , , , :.",
":., , , , , : 5 ] ;.+.+.+.+.+.+.+.+.+.+.+.+.;.;.h - , , , , , :.",
":., , , , , : 5 [ $.Z M m Z Z n v v v v Z Z ( ;.j - , , , , , :.",
":., , , , , : 5 [ +.M r $ x P 7 X O O O e E E ;.j - , , , , , , ",
":., , , , , : 5 [ +.m $ @ y Z O         q E E ;.j - , , , , , , ",
":., , , , , : 5 [ +.Z z t F P w 9 9 9 0 v P E ;.j - , , , , , :.",
":., , , , , : 5 ] ;.( ( ( ( ( ( ( ( ( ( ( ! } ;.h - , , , , , :.",
":., , , , , : 5 ] ;.+.+.+.+.+.+.+.+.+.+.+.+.;.;.h - , , , , , :.",
":.:., , , , : 5 [ $.H N D Z Z n v v v v Z Z ( ;.j - , , , , , :.",
":.:., , , , : 5 [ +.N = & a J 7 X O O O e E E ;.j - , , , , :.:.",
":.:., , , , : 5 [ +.D & % i B O         q E E ;.j - , , , , :.:.",
":.:.:., , , : 5 [ +.Z p u G P w 9 9 9 0 v P E ;.j - , , , , :.:.",
":.:.:.:., , : 5 ] ;.( Q ! Q E ( ( ( ( ( ( E } ;.g - , , , :.:.:.",
":.:.:.:., , , 1 l ;.;.;.;.;.;.;.;.;.;.;.;.;.;.[ 6 : , , :.:.:.:.",
":.:.:.:.:., , : 2 f j h j j j j j j j j j j g 6 < , , :.:.:.:.:.",
":.:.:.:.:.:., , : - - - - - - - - - - - - - - : , , :.:.:.:.:.:.",
":.:.:.:.:.:.:., , , , , , , , , , , , , , , , , , :.:.:.:.:.:.:.",
":.:.:.:.:.:.:.:.:., , , , , , , , , , , , , , , :.:.:.:.:.:.:.:.",
":.:.:.:.:.:.:.:.:.:.:., , , , , , , , , , :.:.:.:.:.:.:.:.:.:.:.",
":.:.:.:.:.:.:.:.:.:.:.:.:.:.:., , :.:.:.:.:.:.:.:.:.:.:.:.:.:.:."
};
